<?xml version="1.0" encoding="UTF-8"?>
<svg width="73px" height="73px" viewBox="0 0 73 73" version="1.1" xmlns="http://www.w3.org/2000/svg" xmlns:xlink="http://www.w3.org/1999/xlink">
    <!-- Generator: Sketch 51.2 (57519) - http://www.bohemiancoding.com/sketch -->
    <title>desktop/icon/large/display/income</title>
    <desc>Created with Sketch.</desc>
    <defs></defs>
    <g id="desktop/icon/large/display/income" stroke="none" stroke-width="1" fill="none" fill-rule="evenodd">
        <g id="Group-48" transform="translate(6.000000, 7.000000)" stroke="#202020" stroke-width="1.539">
            <path d="M24.35547,40.1694464 C24.3848743,39.9185703 24.4,39.6632527 24.4,39.4043528 C24.4,35.8616328 21.5677865,32.9896907 18.0740741,32.9896907 C14.5803617,32.9896907 11.7481481,35.8616328 11.7481481,39.4043528 C11.7481481,41.1291637 12.419477,42.6949779 13.5116295,43.8477763" id="Oval-4" stroke-linecap="round" stroke-linejoin="round"></path>
            <ellipse id="Oval-4" cx="30.7259259" cy="26.5750286" rx="6.32592593" ry="6.41466208"></ellipse>
            <ellipse id="Oval-4" cx="22.1407407" cy="6.41466208" rx="6.32592593" ry="6.41466208"></ellipse>
            <rect id="Rectangle-13" stroke-linecap="round" stroke-linejoin="round" x="51.0592593" y="30.2405498" width="9.94074074" height="26.1168385" rx="1.2312"></rect>
            <path d="M51.0592593,52.6918671 C48.6493827,52.6918671 46.9925926,52.8445972 46.0888889,53.1500573 C40.4373297,55.0603359 34.5632556,57.0458265 28.4666667,59.1065292 C26.6592593,59.7174494 25.0024691,59.5647194 23.4962963,58.6483391 C21.237037,57.2737686 2.25925926,46.277205 1.35555556,45.8190149 C0.451851852,45.3608247 -0.451851852,43.9862543 0.451851852,42.1534937 C1.35555556,40.3207331 2.71111111,40.3207331 4.51851852,40.7789233 C5.72345679,41.0843834 11.4469136,43.069874 21.6888889,46.7353952 L32.5333333,46.7353952 C34.9432099,46.7782925 36.1481481,47.8581272 36.1481481,49.9748992" id="Path-6" stroke-linecap="round" stroke-linejoin="round"></path>
            <path d="M51.0592593,36.1970218 C48.0469136,36.1970218 45.4864198,36.1970218 43.3777778,36.1970218 C40.2148148,36.1970218 37.0518519,37.5715922 34.7925926,38.4879725 C32.5333333,39.4043528 31.6296296,40.3207331 29.3703704,40.3207331 C26.6791007,40.3207331 24.1186069,40.3207331 21.6888889,40.3207331 C19.8814815,40.3207331 18.9777778,41.3898435 18.9777778,43.5280641 C18.9777778,45.0553646 19.8814815,46.124475 21.6888889,46.7353952" id="Path-7" stroke-linecap="round" stroke-linejoin="round"></path>
        </g>
    </g>
</svg>