<?xml version="1.0" encoding="UTF-8"?>
<svg width="73px" height="73px" viewBox="0 0 73 73" version="1.1" xmlns="http://www.w3.org/2000/svg" xmlns:xlink="http://www.w3.org/1999/xlink">
    <!-- Generator: Sketch 52 (66869) - http://www.bohemiancoding.com/sketch -->
    <title>desktop/icon/large/symbols/IO_Overview/Value_Add</title>
    <desc>Created with Sketch.</desc>
    <g id="desktop/icon/large/symbols/IO_Overview/Value_Add" stroke="none" stroke-width="1" fill="none" fill-rule="evenodd" stroke-linecap="round" stroke-linejoin="round">
        <g id="Group" transform="translate(8.000000, 8.000000)" stroke="#202020" stroke-width="1.5">
            <g id="Regular">
                <path d="M26,18.8 L45.8,0.8" id="Shape"></path>
                <polyline id="Shape" points="35 0.8 45.8 0.8 45.8 11.6"></polyline>
                <path d="M54.8,8 L54.8,54.8" id="Shape"></path>
                <path d="M45.8,20.6 L45.8,54.8" id="Shape"></path>
                <path d="M36.8,33.2 L36.8,54.8" id="Shape"></path>
                <path d="M54.8,54.8 L26,54.8" id="Shape"></path>
                <path d="M13.4,35 L26,35 L26,53.6 C26,54.2627417 25.4627417,54.8 24.8,54.8 L14.6,54.8 C13.9372583,54.8 13.4,54.2627417 13.4,53.6 L13.4,35 Z" id="Shape" transform="translate(19.700000, 44.900000) rotate(-180.000000) translate(-19.700000, -44.900000) "></path>
                <path d="M13.4,54.8 L0.8,54.8 L0.8,26 C0.8,25.0058875 1.60588745,24.2 2.6,24.2 L17,24.2 C17.9941125,24.2 18.8,25.0058875 18.8,26 L18.8,35" id="Shape"></path>
                <path d="M6.2,35 L0.8,35" id="Shape"></path>
                <path d="M6.2,42.2 L0.8,42.2" id="Shape"></path>
            </g>
        </g>
    </g>
</svg>